<svg width="23" height="23" viewBox="0 0 23 23" fill="none" xmlns="http://www.w3.org/2000/svg">
<g clip-path="url(#clip0_467_437)">
<path d="M20.9498 23C22.0461 22.9176 22.9176 22.0461 23 20.9498L18.3891 16.3389L16.3389 18.3891L20.9498 23Z" fill="black"/>
<path d="M15.4276 12.7508L12.5332 15.2405L14.2225 16.6936L12.7398 18.1764L13.6927 19.1292L19.1292 13.6927L18.1763 12.7399L16.6936 14.2226L15.4276 12.7508Z" fill="black"/>
<path d="M10.6112 7.15143L4.89833 0.509908L0 0L0.509908 4.89833L7.42949 10.8503L10.6112 7.15143Z" fill="black"/>
<path d="M0 20.9498C0.0823867 22.0461 0.953871 22.9176 2.05023 23L6.66115 18.3891L4.61092 16.3389L0 20.9498Z" fill="black"/>
<path d="M6.30647 14.2226L4.82373 12.7399L3.87085 13.6928L9.30734 19.1293L10.2602 18.1764L8.77749 16.6936L22.4902 4.89833L23.0001 0L18.1018 0.509908L6.30647 14.2226Z" fill="black"/>
</g>
<defs>
<clipPath id="clip0_467_437">
<rect width="23" height="23" fill="white"/>
</clipPath>
</defs>
</svg>
