<svg width="22" height="22" viewBox="0 0 22 22" fill="none" xmlns="http://www.w3.org/2000/svg">
<g clip-path="url(#clip0_467_445)">
<path d="M3.98277 9.28123C4.25047 9.54936 4.68703 9.54936 4.95473 9.28123L5.84375 8.39221C6.11187 8.12451 6.11187 7.68795 5.84375 7.42026L4.95473 6.53123H17.1875C18.3249 6.53123 19.25 7.45635 19.25 8.59373C19.25 9.16221 19.7128 9.62498 20.2812 9.62498H20.9688C21.5372 9.62498 22 9.16221 22 8.59373C22 5.93998 19.8412 3.78123 17.1875 3.78123H4.95473L5.84375 2.89221C6.11187 2.62451 6.11187 2.18795 5.84375 1.92026L4.95473 1.03123C4.68703 0.763108 4.25047 0.763108 3.98277 1.03123L0.100547 4.91303C-0.0335156 5.04752 -0.0335156 5.26494 0.100547 5.39944L3.98277 9.28123Z" fill="black"/>
<path d="M18.0172 12.7188C17.7495 12.4506 17.3134 12.4506 17.0453 12.7188L16.1562 13.6078C15.8876 13.8764 15.8872 14.3107 16.1562 14.5797L17.0453 15.4688H4.8125C3.67512 15.4688 2.75 14.5436 2.75 13.4062C2.75 12.8378 2.28723 12.375 1.71875 12.375H1.03125C0.462773 12.375 0 12.8378 0 13.4062C0 16.06 2.15875 18.2188 4.8125 18.2188H17.0453L16.1562 19.1078C15.8876 19.3764 15.8872 19.8107 16.1562 20.0797L17.0453 20.9688C17.3134 21.2369 17.7491 21.2369 18.0172 20.9688L21.8995 17.087C22.0335 16.9525 22.0335 16.735 21.8995 16.6005L18.0172 12.7188Z" fill="black"/>
</g>
<defs>
<clipPath id="clip0_467_445">
<rect width="22" height="22" fill="white"/>
</clipPath>
</defs>
</svg>
